<svg width="15" height="9" viewBox="0 0 15 9" fill="none" xmlns="http://www.w3.org/2000/svg">
<g clip-path="url(#clip0_269_1792)">
<path d="M0.477465 6.82886L6.76647 0.389946C6.81748 0.337218 6.87857 0.29529 6.94611 0.266655C7.01365 0.23802 7.08626 0.223263 7.15962 0.223263C7.23299 0.223263 7.3056 0.23802 7.37314 0.266655C7.44068 0.29529 7.50177 0.337219 7.55278 0.389946C7.65733 0.497784 7.7158 0.642087 7.7158 0.792289C7.7158 0.942492 7.65733 1.0868 7.55278 1.19463L1.26377 7.63355C1.21276 7.68627 1.15167 7.7282 1.08413 7.75684C1.01659 7.78547 0.943977 7.80023 0.870616 7.80023C0.797255 7.80023 0.724644 7.78547 0.657103 7.75684C0.589562 7.7282 0.528471 7.68627 0.477465 7.63355C0.372909 7.52571 0.314439 7.38141 0.314439 7.2312C0.314439 7.081 0.372909 6.9367 0.477465 6.82886Z" fill="white"/>
<path d="M13.0498 7.63335L6.76081 1.19444C6.65625 1.0866 6.59778 0.942295 6.59778 0.792092C6.59778 0.64189 6.65625 0.497587 6.76081 0.389749C6.81182 0.337022 6.87291 0.295092 6.94045 0.266457C7.00799 0.237822 7.0806 0.223065 7.15396 0.223066C7.22732 0.223066 7.29993 0.237822 7.36747 0.266457C7.43501 0.295092 7.49611 0.337021 7.54711 0.389749L13.8361 6.82866C13.9405 6.93668 13.9987 7.08109 13.9984 7.23129C13.9982 7.3815 13.9395 7.5257 13.8347 7.63335C13.7837 7.68586 13.7227 7.7276 13.6553 7.75611C13.5879 7.78462 13.5155 7.7993 13.4423 7.7993C13.3691 7.7993 13.2966 7.78462 13.2292 7.75611C13.1618 7.7276 13.1008 7.68586 13.0498 7.63335Z" fill="white"/>
</g>
<defs>
<clipPath id="clip0_269_1792">
<rect width="8.026" height="14.312" fill="white" transform="translate(14.312) rotate(90)"/>
</clipPath>
</defs>
</svg>
