<svg width="61" height="49" viewBox="0 0 61 49" fill="none" xmlns="http://www.w3.org/2000/svg">
<path d="M48.3102 34.116C46.7273 34.4468 44.7935 34.4562 43.0486 34.1416L42.4713 34.0375L43.3934 32.5455C45.0642 29.8416 46.1279 27.8034 47.2603 25.1361C48.3796 22.4992 49.1363 20.1484 49.687 17.5973C49.9904 16.1919 50.367 13.9018 50.2896 13.9332C50.2713 13.9407 50.1322 14.4481 49.9806 15.0609C48.3791 21.5322 45.0477 28.2258 41.3366 32.4291C40.9227 32.8979 40.5572 33.262 40.5243 33.2383C40.1716 32.9835 38.8908 31.3372 38.2546 30.3207C37.6039 29.2811 36.8579 27.4815 36.6819 26.5272C36.3439 24.694 36.5581 23.2037 37.3986 21.5409C38.4132 19.5338 40.0319 17.735 42.9393 15.3842C46.3517 12.625 47.384 11.6332 48.4798 10.0611C49.2567 8.94654 49.9126 7.42336 50.1641 6.14994C50.2408 5.76142 50.3223 5.43471 50.3452 5.42387C50.417 5.38999 51.2177 6.63291 51.6886 7.5091C52.3864 8.8078 52.9709 10.1527 53.4491 11.5601C56.234 19.7569 56.0013 27.5587 52.8591 31.3536C52.2985 32.0305 51.6318 32.6262 50.9887 33.025C50.3215 33.4387 49.0267 33.9661 48.3108 34.1157L48.3102 34.116ZM31.1602 40.9576C28.1156 41.8925 25.2685 41.897 22.5194 40.971C19.5533 39.9724 16.4639 37.5493 14.5029 34.6836C13.6317 33.4105 13.1029 32.3942 11.837 29.5603C11.1809 28.0914 10.5045 26.6703 10.2751 26.2785C8.46846 23.1928 6.15492 21.6966 1.91892 20.8748L1.28591 20.7519L1.63509 20.4674C2.1698 20.0316 3.3573 19.253 4.1163 18.8404C5.26814 18.2144 8.21323 17.1209 9.76235 16.7439C15.42 15.3672 21.8161 15.3241 27.3282 16.6257C30.4473 17.3621 33.4538 18.6467 35.4645 20.1018L35.9664 20.4651L35.4567 21.6305C34.8998 22.9035 34.7227 23.5536 34.6601 24.5537C34.5233 26.7409 35.4675 29.1179 37.3645 31.3618C37.649 31.6983 37.8759 31.9871 37.8687 32.0035C37.8615 32.0199 37.6765 31.8844 37.4574 31.7024C33.0561 28.0441 28.4266 25.5356 23.4452 24.1096C22.1747 23.746 19.4478 23.1533 19.3075 23.2102C19.2887 23.2179 19.9489 23.5077 20.7746 23.8544C24.7691 25.5314 28.1255 27.4 31.123 29.6148C32.2062 30.4152 34.1099 32.0831 34.9551 32.972C36.1501 34.2289 37.3563 35.8509 37.7363 36.7119L37.9258 37.1413L37.3834 37.5832C35.7271 38.9323 33.0792 40.368 31.1606 40.9571L31.1602 40.9576ZM38.0145 32.1967C37.9736 32.1672 37.9491 32.1225 37.96 32.0975C37.9709 32.0725 38.017 32.0915 38.0625 32.1397C38.1568 32.2399 38.1256 32.277 38.0145 32.1967Z" fill="#F88500"/>
</svg>
